0
SECTION
2
HEADER
9
$INSUNITS
70
4
9
$ACADVER
1
AC1014
9
$HANDSEED
5
FFFF
0
ENDSEC
0
SECTION
2
TABLES
0
TABLE
2
VPORT
5
8
100
AcDbSymbolTable
0
ENDTAB
0
TABLE
2
LTYPE
5
5
100
AcDbSymbolTable
0
LTYPE
5
14
100
AcDbSymbolTableRecord
100
AcDbLinetypeTableRecord
2
BYBLOCK
70
0
0
LTYPE
5
15
100
AcDbSymbolTableRecord
100
AcDbLinetypeTableRecord
2
BYLAYER
70
0
0
ENDTAB
0
TABLE
2
LAYER
5
2
100
AcDbSymbolTable
70
2
0
LAYER
5
50
100
AcDbSymbolTableRecord
100
AcDbLayerTableRecord
2
0
70
0
6
CONTINUOUS
0
ENDTAB
0
TABLE
2
STYLE
5
3
100
AcDbSymbolTable
70
1
0
STYLE
5
11
100
AcDbSymbolTableRecord
100
AcDbTextStyleTableRecord
2
STANDARD
70
0
0
ENDTAB
0
TABLE
2
VIEW
5
6
100
AcDbSymbolTable
70
0
0
ENDTAB
0
TABLE
2
UCS
5
7
100
AcDbSymbolTable
70
0
0
ENDTAB
0
TABLE
2
APPID
5
9
100
AcDbSymbolTable
70
2
0
APPID
5
12
100
AcDbSymbolTableRecord
100
AcDbRegAppTableRecord
2
ACAD
70
0
0
ENDTAB
0
TABLE
2
DIMSTYLE
5
A
100
AcDbSymbolTable
70
1
0
ENDTAB
0
TABLE
2
BLOCK_RECORD
5
1
100
AcDbSymbolTable
70
1
0
BLOCK_RECORD
5
1F
100
AcDbSymbolTableRecord
100
AcDbBlockTableRecord
2
*MODEL_SPACE
0
BLOCK_RECORD
5
1B
100
AcDbSymbolTableRecord
100
AcDbBlockTableRecord
2
*PAPER_SPACE
0
ENDTAB
0
ENDSEC
0
SECTION
2
BLOCKS
0
BLOCK
5
20
100
AcDbEntity
100
AcDbBlockBegin
2
*MODEL_SPACE
0
ENDBLK
5
21
100
AcDbEntity
100
AcDbBlockEnd
0
BLOCK
5
1C
100
AcDbEntity
100
AcDbBlockBegin
2
*PAPER_SPACE
0
ENDBLK
5
1D
100
AcDbEntity
100
AcDbBlockEnd
0
ENDSEC
0
SECTION
2
ENTITIES
0
LWPOLYLINE
5
100
100
AcDbEntity
8
0
100
AcDbPolyline
90
16
70
1
43
0.0
10
-60
20
-10,000000000000002
42
-0,41421356237309515
10
-65
20
-5
10
-65
20
55
42
-0,41421356237309503
10
-45
20
75
10
45
20
75
42
-0,41421356237309503
10
65
20
55
10
64,999999999999986
20
-4,9999999999999982
42
-0,4142135623730952
10
60
20
-9,9999999999999964
10
35
20
-10
42
0,41421356237309503
10
30
20
-15
10
30,000000000000007
20
-70
42
-0,41421356237309553
10
25
20
-75
10
-25
20
-74,999999999999986
42
-0,41421356237309553
10
-30
20
-70
10
-30
20
-14,999999999999996
42
0,41421356237309503
10
-35
20
-9,9999999999999964
0
LWPOLYLINE
5
101
100
AcDbEntity
8
0
100
AcDbPolyline
90
4
70
1
43
0.0
10
-6,9999999999999973
20
-2,0000000000000018
10
-6,9999999999999973
20
-17
10
-4,0000000000000009
20
-17
10
-4,0000000000000009
20
-2,0000000000000027
0
LWPOLYLINE
5
102
100
AcDbEntity
8
0
100
AcDbPolyline
90
4
70
1
43
0.0
10
-10
20
-67
10
-3,9000000000000012
20
-67
10
-3,9000000000000012
20
-52
10
-10
20
-52
0
LWPOLYLINE
5
103
100
AcDbEntity
8
0
100
AcDbPolyline
90
4
70
1
43
0.0
10
3,9000000000000012
20
-67
10
10
20
-67
10
10
20
-52
10
3,9000000000000012
20
-52
0
LWPOLYLINE
5
104
100
AcDbEntity
8
0
100
AcDbPolyline
90
4
70
1
43
0.0
10
6,9999999999999973
20
-17
10
6,9999999999999973
20
-2,0000000000000027
10
4,0000000000000009
20
-2,0000000000000018
10
4,0000000000000009
20
-17
0
CIRCLE
5
105
100
AcDbEntity
8
0
100
AcDbCircle
10
10
20
65
30
0
40
1,4999999999999991
0
CIRCLE
5
106
100
AcDbEntity
8
0
100
AcDbCircle
10
-10
20
65
30
0
40
1,4999999999999991
0
LWPOLYLINE
5
107
100
AcDbEntity
8
0
100
AcDbPolyline
90
4
70
1
43
0.0
10
33,000000491738319
20
30,000000447034836
10
33,000000491738319
20
26,000000387430191
10
35,000000521540642
20
26,000000387430191
10
35,000000521540642
20
30,000000447034836
0
LWPOLYLINE
5
108
100
AcDbEntity
8
0
100
AcDbPolyline
90
4
70
1
43
0.0
10
-2,0000000298023224
20
-11,500000000000002
10
2,0000000298023224
20
-11,500000000000002
10
2,0000000298023224
20
-7,499999940395357
10
-2,0000000298023224
20
-7,499999940395357
0
LWPOLYLINE
5
109
100
AcDbEntity
8
0
100
AcDbPolyline
90
4
70
1
43
0.0
10
40
20
20
10
40
20
35
10
37
20
35
10
37
20
20
0
LWPOLYLINE
5
110
100
AcDbEntity
8
0
100
AcDbPolyline
90
4
70
1
43
0.0
10
12
20
-64
10
14,000000029802322
20
-64
10
14,000000029802322
20
-59,999999940395355
10
12
20
-59,999999940395355
0
LWPOLYLINE
5
111
100
AcDbEntity
8
0
100
AcDbPolyline
90
4
70
1
43
0.0
10
42,00000062584877
20
25,5
10
44,000000655651093
20
25,5
10
44,000000655651093
20
29,499999999999996
10
42,00000062584877
20
29,5
0
LWPOLYLINE
5
112
100
AcDbEntity
8
0
100
AcDbPolyline
90
4
70
1
43
0.0
10
8,9999999999999964
20
-11,499999858438969
10
10,999999999999996
20
-11,499999858438969
10
10,999999999999996
20
-7,4999998584389695
10
8,9999999999999964
20
-7,4999998584389695
0
LWPOLYLINE
5
113
100
AcDbEntity
8
0
100
AcDbPolyline
90
4
70
1
43
0.0
10
-33,000000491738319
20
26,000000387430191
10
-33,000000491738319
20
30,000000447034836
10
-35,000000521540642
20
30,000000447034836
10
-35,000000521540642
20
26,000000387430191
0
LWPOLYLINE
5
114
100
AcDbEntity
8
0
100
AcDbPolyline
90
4
70
1
43
0.0
10
-40
20
35
10
-40
20
20
10
-37
20
20
10
-37
20
35
0
LWPOLYLINE
5
115
100
AcDbEntity
8
0
100
AcDbPolyline
90
4
70
1
43
0.0
10
-14,000000029802322
20
-64
10
-12
20
-64
10
-12
20
-59,999999940395355
10
-14,000000029802322
20
-59,999999940395355
0
LWPOLYLINE
5
116
100
AcDbEntity
8
0
100
AcDbPolyline
90
4
70
1
43
0.0
10
-44,000000655651093
20
25,5
10
-42,00000062584877
20
25,5
10
-42,00000062584877
20
29,5
10
-44,000000655651093
20
29,499999999999996
0
LWPOLYLINE
5
117
100
AcDbEntity
8
0
100
AcDbPolyline
90
4
70
1
43
0.0
10
-10,999999999999996
20
-11,499999858438969
10
-8,9999999999999964
20
-11,499999858438969
10
-8,9999999999999964
20
-7,4999998584389695
10
-10,999999999999996
20
-7,4999998584389695
0
LWPOLYLINE
5
118
100
AcDbEntity
8
0
100
AcDbPolyline
90
4
70
1
43
0.0
10
34,999994754791096
20
48
10
-34,999994754791096
20
48
10
-34,999995082616643
20
45
10
34,999995082616643
20
45
0
LWPOLYLINE
5
119
100
AcDbEntity
8
0
100
AcDbPolyline
90
4
70
1
43
0.0
10
33,399994754791102
20
58,100000000000009
10
-33,399994754791102
20
58,100000000000009
42
0,99999999999999989
10
-33,399994754791102
20
54,900000000000006
10
33,399994754791102
20
54,900000000000006
42
0,99999999999999989
0
ENDSEC
0
SECTION
2
OBJECTS
0
DICTIONARY
5
C
100
AcDbDictionary
3
ACAD_GROUP
350
D
3
ACAD_MLINESTYLE
350
17
0
DICTIONARY
5
D
100
AcDbDictionary
0
DICTIONARY
5
1A
330
C
100
AcDbDictionary
0
DICTIONARY
5
17
100
AcDbDictionary
0
ENDSEC
0
EOF
