0
SECTION
2
HEADER
9
$INSUNITS
70
4
9
$ACADVER
1
AC1014
9
$HANDSEED
5
FFFF
0
ENDSEC
0
SECTION
2
TABLES
0
TABLE
2
VPORT
5
8
100
AcDbSymbolTable
0
ENDTAB
0
TABLE
2
LTYPE
5
5
100
AcDbSymbolTable
0
LTYPE
5
14
100
AcDbSymbolTableRecord
100
AcDbLinetypeTableRecord
2
BYBLOCK
70
0
0
LTYPE
5
15
100
AcDbSymbolTableRecord
100
AcDbLinetypeTableRecord
2
BYLAYER
70
0
0
ENDTAB
0
TABLE
2
LAYER
5
2
100
AcDbSymbolTable
70
2
0
LAYER
5
50
100
AcDbSymbolTableRecord
100
AcDbLayerTableRecord
2
0
70
0
6
CONTINUOUS
0
ENDTAB
0
TABLE
2
STYLE
5
3
100
AcDbSymbolTable
70
1
0
STYLE
5
11
100
AcDbSymbolTableRecord
100
AcDbTextStyleTableRecord
2
STANDARD
70
0
0
ENDTAB
0
TABLE
2
VIEW
5
6
100
AcDbSymbolTable
70
0
0
ENDTAB
0
TABLE
2
UCS
5
7
100
AcDbSymbolTable
70
0
0
ENDTAB
0
TABLE
2
APPID
5
9
100
AcDbSymbolTable
70
2
0
APPID
5
12
100
AcDbSymbolTableRecord
100
AcDbRegAppTableRecord
2
ACAD
70
0
0
ENDTAB
0
TABLE
2
DIMSTYLE
5
A
100
AcDbSymbolTable
70
1
0
ENDTAB
0
TABLE
2
BLOCK_RECORD
5
1
100
AcDbSymbolTable
70
1
0
BLOCK_RECORD
5
1F
100
AcDbSymbolTableRecord
100
AcDbBlockTableRecord
2
*MODEL_SPACE
0
BLOCK_RECORD
5
1B
100
AcDbSymbolTableRecord
100
AcDbBlockTableRecord
2
*PAPER_SPACE
0
ENDTAB
0
ENDSEC
0
SECTION
2
BLOCKS
0
BLOCK
5
20
100
AcDbEntity
100
AcDbBlockBegin
2
*MODEL_SPACE
0
ENDBLK
5
21
100
AcDbEntity
100
AcDbBlockEnd
0
BLOCK
5
1C
100
AcDbEntity
100
AcDbBlockBegin
2
*PAPER_SPACE
0
ENDBLK
5
1D
100
AcDbEntity
100
AcDbBlockEnd
0
ENDSEC
0
SECTION
2
ENTITIES
0
LWPOLYLINE
5
100
100
AcDbEntity
8
0
100
AcDbPolyline
90
4
70
1
43
0.0
10
-25,499999940395348
20
35
10
-29,499999999999993
20
35
10
-29,499999999999993
20
32,999999970197678
10
-25,499999940395348
20
32,999999970197678
0
LWPOLYLINE
5
101
100
AcDbEntity
8
0
100
AcDbPolyline
90
4
70
1
43
0.0
10
-29,499999999999993
20
-35
10
-25,499999940395348
20
-35
10
-25,499999940395348
20
-32,999999970197678
10
-29,499999999999993
20
-32,999999970197678
0
CIRCLE
5
102
100
AcDbEntity
8
0
100
AcDbCircle
10
56
20
0
30
0
40
1,5000000000000036
0
CIRCLE
5
103
100
AcDbEntity
8
0
100
AcDbCircle
10
-1,9999999999999973
20
0
30
0
40
1,5000000000000002
0
LWPOLYLINE
5
104
100
AcDbEntity
8
0
100
AcDbPolyline
90
181
70
1
43
0.0
10
-69,248721436782219
20
-19,854008765874312
10
-69,238167222104394
20
-19,799299803765564
10
-69,229514624431403
20
-19,744258051104627
10
-69,222774031179284
20
-19,688949585341394
10
-69,217953534408878
20
-19,633440804113715
10
-69,215058921111819
20
-19,577798345538156
10
-69,214093666261718
20
-19,522089008209885
10
-69,215073277297208
20
-19,465967181866006
10
-69,218010915032096
20
-19,409913731352336
10
-69,222903000407683
20
-19,353996949160944
10
-69,229743573171476
20
-19,298284961274874
10
-69,238524299139854
20
-19,242845644166724
10
-69,249234480350808
20
-19,187746542101472
10
-69,261861068099194
20
-19,133054784845115
10
-69,276388678833598
20
-19,078837005876437
10
-69,292799612898676
20
-19,025159261204465
10
-69,311073876100096
20
-18,972086948890084
10
-69,331189204063691
20
-18,919684729367706
10
-69,353121089362702
20
-18,868016446667582
10
-69,376842811373479
20
-18,817145050630131
10
-69,402325468833766
20
-18,767132520213011
10
-69,429538015051662
20
-18,718039787977947
10
-69,458447295732782
20
-18,669926665854685
10
-69,489018089373431
20
-18,622851772268575
10
-69,521213150171945
20
-18,576872460723795
10
-69,554993253407531
20
-18,532044749926573
10
-69,59031724323026
20
-18,488423255534887
10
-69,627142082801257
20
-18,446061123617994
10
-69,665422906727656
20
-18,405009965906235
10
-69,705113075724157
20
-18,365319796909663
10
-69,746164233435934
20
-18,327038972983303
10
-69,788526365352823
20
-18,290214133412462
10
-69,832147859744367
20
-18,254890143589876
10
-69,876975570541788
20
-18,221110040353835
10
-69,922954882086657
20
-18,188914979555253
10
-69,970029775672515
20
-18,158344185914704
10
-70,018142897795855
20
-18,129434905233492
10
-70,06723563003095
20
-18,102222359015574
10
-70,117248160447929
20
-18,076739701555482
10
-70,168119556485038
20
-18,053017979544453
10
-70,21978783918567
20
-18,031086094245605
10
-70,272190058707878
20
-18,010970766281673
10
-70,325262371022177
20
-17,992696503080253
10
-70,378940115694235
20
-17,976285569015264
10
-70,433157894662941
20
-17,961757958280884
10
-70,487849651919447
20
-17,949131370532374
10
-70,542948753984433
20
-17,938421189321215
10
-70,598388071092657
20
-17,929640463352992
10
-70,654100058978571
20
-17,922799890589264
10
-70,710016841170187
20
-17,917907805213705
10
-70,76607029168386
20
-17,914970167478778
10
-70,822192118027829
20
-17,913990556443483
10
-70,877901455355953
20
-17,914955811293623
10
-70,933543913931658
20
-17,917850424590764
10
-70,989052695159032
20
-17,922670921360975
10
-71,044361160922449
20
-17,929411514613037
10
-71,099402913583447
20
-17,938064112285982
10
-71,154111875692152
20
-17,948618326963867
10
-71,2084223693127
20
-17,961061488345134
10
-71,262269194869674
20
-17,975378658454193
10
-71,315587709418963
20
-17,991552649573524
10
-71,36831390425283
20
-18,009564044878005
10
-71,420384481741479
20
-18,029391221744444
10
-71,471736931321061
20
-18,051010377710046
10
-71,522309604538236
20
-18,074395559046081
10
-71,572041789059639
20
-18,099518691916785
10
-71,620873781554479
20
-18,126349616080514
10
-71,668746959370139
20
-18,154856121097566
10
-71,715603850908678
20
-18,185003984999014
10
-71,761388204620175
20
-18,216757015369634
10
-71,806045056532241
20
-18,250077092796975
10
-71,849520796236348
20
-18,284924216633552
10
-71,891763231243544
20
-18,321256553017573
10
-71,932721649645259
20
-18,359030485093914
10
-71,972346880989662
20
-18,398200665377036
10
-72,010591355311277
20
-18,438720070189046
10
-72,047409160240335
20
-18,480540056113174
10
-72,082756096118246
20
-18,523610418388383
10
-72,116589729060536
20
-18,567879451181113
10
-72,148869441897929
20
-18,613294009657633
10
-72,179556482937031
20
-18,659799573784255
10
-72,208614012482855
20
-18,707340313778385
10
-72,23600714706248
20
-18,755859157132075
10
-72,261703001304653
20
-18,805297857127524
10
-72,285670727418037
20
-18,855597062761884
10
-72,307881552222966
20
-18,906696389997645
10
-72,328308811694484
20
-18,95853449425482
10
-72,346927982972772
20
-19,011049144052606
10
-72,363716713800954
20
-19,064177295720643
10
-72,378654849361155
20
-19,117855169080656
10
-72,391724456468936
20
-19,172018324015937
10
-72,402909845102243
20
-19,226601737829984
10
-72,412197587237515
20
-19,281539883307516
10
-72,419576532969671
20
-19,336766807378755
10
-72,425037823897682
20
-19,392216210295885
10
-72,428574903758857
20
-19,447821525226516
10
-72,430183526300766
20
-19,503515998166055
10
-72,429861760376184
20
-19,559232768075674
10
-72,427609992264507
20
-19,614904947149792
10
-72,423430925206347
20
-19,670465701113308
10
-72,417329576158266
20
-19,725848329457165
10
-72,409313269770649
20
-19,78098634551128
10
-72,399391629593879
20
-19,835813556261712
10
-72,387576566525553
20
-19,890264141815742
10
-72,373882264511764
20
-19,944272734417552
10
-72,358325163518344
20
-19,997774496922773
10
-72,340923939795971
20
-20,050705200634692
10
-72,321699483458445
20
-20,103001302411204
10
-72,300674873405271
20
-20,154600020947491
10
-72,277875349613439
20
-20,205439412145264
10
-72,253328282840243
20
-20,255458443476357
10
-72,227063141760823
20
-20,304597067251905
10
-72,199111457594043
20
-20,352796292709684
10
-72,169506786248434
20
-20,3999982568319
10
-72,138284668038153
20
-20,446146293810152
10
-72,105482585017242
20
-20,491185003072072
10
-72,07113991598284
20
-20,535060315789622
10
-72,035297889200251
20
-20,577719559788932
10
-71,997999532908949
20
-20,619111522782472
10
-71,959289623668042
20
-20,659186513849647
10
-71,919214632600756
20
-20,697896423090643
10
-71,877822669607383
20
-20,73519477938185
10
-71,835163425608144
20
-20,771036806164538
10
-71,791288112890356
20
-20,805379475199004
10
-71,74624940362844
20
-20,838181558219784
10
-71,700101366650273
20
-20,869403676430061
10
-71,65289940252805
20
-20,899008347775695
10
-71,604700177070384
20
-20,926960031942421
10
-71,55556155329478
20
-20,953225173021963
10
-71,505542521963747
20
-20,977772239795453
10
-71,454703130765978
20
-21,000571763586944
10
-71,403104412229681
20
-21,021596373640193
10
-71,35080831045336
20
-21,040820829977569
10
-71,297877606741267
20
-21,058222053699922
10
-71,244375844236288
20
-21,073779154693455
10
-71,190367251634285
20
-21,087473456707411
10
-71,135916666080377
20
-21,099288519775712
10
-71,08108945532976
20
-21,109210159952511
10
-71,025951439275701
20
-21,117226466340124
10
-70,970568810931951
20
-21,123327815388105
10
-70,915008056968247
20
-21,127506882446312
10
-70,859335877894267
20
-21,129758650557903
10
-70,803619107984446
20
-21,130080416482375
10
-70,747924635045251
20
-21,128471793940832
10
-70,69231932011445
20
-21,124934714079533
10
-70,63686991719706
20
-21,119473423151639
10
-70,581642993125826
20
-21,112094477419582
10
-70,526704847648347
20
-21,102806735284332
10
-70,47212143383436
20
-21,091621346650918
10
-70,417958278899164
20
-21,078551739543112
10
-70,364280405539262
20
-21,063613603982905
10
-70,311152253870944
20
-21,046824873154662
10
-70,258637604073257
20
-21,028205701876633
10
-70,206799499816384
20
-21,007778442405023
10
-70,155700172580353
20
-20,98556761759999
10
-70,105400966945979
20
-20,961599891486852
10
-70,055962266950544
20
-20,935904037244484
10
-70,007443423596982
20
-20,908510902664776
10
-69,959902683602763
20
-20,879453373119247
10
-69,913397119475917
20
-20,848766332080064
10
-69,867982560999621
20
-20,816486619242653
10
-69,82371352820681
20
-20,782652986300434
10
-69,780643165931764
20
-20,747306050422424
10
-69,738823180007685
20
-20,710488245493302
10
-69,698303775195257
20
-20,672243771171502
10
-69,659133594912277
20
-20,632618539827433
10
-69,621359662835715
20
-20,591660121425832
10
-69,585027326451979
20
-20,549417686418284
10
-69,550180202615223
20
-20,505941946714472
10
-69,516860125187947
20
-20,461285094802122
10
-69,48510709481738
20
-20,415500741090856
10
-69,454959230915776
20
-20,368643849552249
10
-69,426452725898685
20
-20,320770671736391
10
-69,399621801734952
20
-20,271938679241714
10
-69,374498668864462
20
-20,222206494720524
10
-69,35111348752838
20
-20,171633821503228
10
-69,329494331562699
20
-20,120281371923561
10
-69,309667154696299
20
-20,068210794435064
10
-69,291655759392057
20
-20,015484599601162
10
-69,275481768272513
20
-19,962166085051823
10
-69,261164598163703
20
-19,908319259494935
0
LWPOLYLINE
5
105
100
AcDbEntity
8
0
100
AcDbPolyline
90
181
70
1
43
0.0
10
-21,007949210328523
20
-20,567836370564176
10
-21,016729936296734
20
-20,51239705345602
10
-21,02744011750783
20
-20,457297951390778
10
-21,040066705256439
20
-20,402606194134528
10
-21,05459431599062
20
-20,34838841516574
10
-21,071005250055599
20
-20,294710670493885
10
-21,089279513257111
20
-20,24163835817938
10
-21,109394841221025
20
-20,189236138657122
10
-21,131326726519823
20
-20,137567855956881
10
-21,155048448530724
20
-20,08669645991943
10
-21,180531105990923
20
-20,036683929502431
10
-21,20774365220873
20
-19,98759119726747
10
-21,236652932889903
20
-19,939478075144102
10
-21,267223726530524
20
-19,892403181557988
10
-21,29941878732911
20
-19,846423870013318
10
-21,333198890565033
20
-19,80159615921599
10
-21,368522880387619
20
-19,7579746648243
10
-21,405347719958421
20
-19,715612532907521
10
-21,443628543884827
20
-19,674561375195651
10
-21,483318712881427
20
-19,63487120619908
10
-21,524369870592999
20
-19,596590382272723
10
-21,566732002509923
20
-19,559765542701882
10
-21,610353496901595
20
-19,524441552879182
10
-21,655181207698817
20
-19,490661449643255
10
-21,701160519243601
20
-19,45846638884467
10
-21,748235412829722
20
-19,427895595204124
10
-21,796348534953012
20
-19,398986314523022
10
-21,845441267187908
20
-19,371773768305104
10
-21,895453797605242
20
-19,346291110844902
10
-21,946325193642409
20
-19,322569388833873
10
-21,997993476342756
20
-19,300637503535143
10
-22,050395695864928
20
-19,280522175571203
10
-22,103468008179412
20
-19,262247912369904
10
-22,157145752851335
20
-19,245836978304681
10
-22,211363531820112
20
-19,231309367570301
10
-22,266055289076441
20
-19,218682779821791
10
-22,321154391141427
20
-19,207972598610752
10
-22,376593708249715
20
-19,19919187264253
10
-22,432305696135728
20
-19,192351299878794
10
-22,488222478327131
20
-19,187459214503232
10
-22,544275928840811
20
-19,184521576768304
10
-22,600397755184822
20
-19,183541965732672
10
-22,656107092513125
20
-19,184507220582812
10
-22,711749551088936
20
-19,18740183388007
10
-22,767258332316445
20
-19,192222330650161
10
-22,822566798079791
20
-19,198962923902222
10
-22,877608550740831
20
-19,207615521575171
10
-22,932317512849707
20
-19,218169736252943
10
-22,986628006470298
20
-19,230612897634213
10
-23,040474832027229
20
-19,244930067743383
10
-23,093793346576597
20
-19,261104058862713
10
-23,146519541410484
20
-19,279115454167083
10
-23,198590118899247
20
-19,298942631033526
10
-23,249942568478836
20
-19,320561786999001
10
-23,300515241696225
20
-19,343946968335274
10
-23,350247426217443
20
-19,369070101205864
10
-23,399079418712248
20
-19,395901025369483
10
-23,446952596528234
20
-19,424407530386532
10
-23,49380948806683
20
-19,454555394287972
10
-23,539593841778199
20
-19,486308424658606
10
-23,584250693690514
20
-19,519628502085936
10
-23,627726433394329
20
-19,554475625922635
10
-23,669968868402016
20
-19,590807962306545
10
-23,710927286803738
20
-19,628581894383103
10
-23,750552518147927
20
-19,667752074666112
10
-23,788796992469585
20
-19,708271479478242
10
-23,825614797398735
20
-19,750091465402363
10
-23,860961733276724
20
-19,793161827677579
10
-23,894795366219128
20
-19,837430860470299
10
-23,927075079056621
20
-19,882845418946943
10
-23,957762120095936
20
-19,929350983073558
10
-23,98681964964144
20
-19,976891723067581
10
-24,014212784221236
20
-20,025410566421378
10
-24,03990863846353
20
-20,074849266416834
10
-24,063876364576835
20
-20,125148472051187
10
-24,086087189381828
20
-20,176247799287182
10
-24,106514448853531
20
-20,22808590354412
10
-24,125133620131614
20
-20,28060055334214
10
-24,141922350959888
20
-20,33372870501017
10
-24,156860486520237
20
-20,3874065783703
10
-24,169930093628018
20
-20,441569733305471
10
-24,181115482261433
20
-20,496153147119621
10
-24,190403224396739
20
-20,551091292597157
10
-24,197782170128725
20
-20,606318216668388
10
-24,203243461056729
20
-20,661767619585643
10
-24,206780540918125
20
-20,717372934516387
10
-24,208389163459749
20
-20,773067407455809
10
-24,208067397535089
20
-20,828784177365662
10
-24,205815629423597
20
-20,884456356439671
10
-24,201636562365429
20
-20,940017110403399
10
-24,195535213317321
20
-20,99539973874726
10
-24,18751890692981
20
-21,050537754801383
10
-24,177597266752997
20
-21,105364965551917
10
-24,165782203684714
20
-21,159815551105964
10
-24,152087901670747
20
-21,213824143707882
10
-24,13653080067732
20
-21,267325906213095
10
-24,119129576954919
20
-21,320256609925128
10
-24,0999051206175
20
-21,372552711701527
10
-24,078880510564247
20
-21,424151430237821
10
-24,056080986772734
20
-21,474990821435821
10
-24,031533919999326
20
-21,5250098527668
10
-24,005268778919735
20
-21,574148476542454
10
-23,977317094753019
20
-21,622347702000241
10
-23,947712423407452
20
-21,669549666122574
10
-23,916490305197087
20
-21,71569770310083
10
-23,883688222176325
20
-21,760736412362736
10
-23,84934555314171
20
-21,804611725080399
10
-23,813503526358986
20
-21,847270969079709
10
-23,776205170067932
20
-21,88866293207326
10
-23,737495260826904
20
-21,928737923140538
10
-23,697420269759739
20
-21,967447832381527
10
-23,65602830676611
20
-22,004746188672748
10
-23,613369062766836
20
-22,040588215455436
10
-23,569493750049091
20
-22,074930884490005
10
-23,524455040787231
20
-22,107732967510788
10
-23,478307003809036
20
-22,138955085721072
10
-23,431105039686599
20
-22,168559757066699
10
-23,382905814228891
20
-22,196511441233437
10
-23,333767190453329
20
-22,222776582312971
10
-23,283748159122233
20
-22,247323649086461
10
-23,232908767924343
20
-22,270123172877948
10
-23,181310049387989
20
-22,291147782931304
10
-23,129013947611625
20
-22,310372239268695
10
-23,076083243899603
20
-22,327773462991161
10
-23,02258148139444
20
-22,34333056398458
10
-22,968572888792522
20
-22,357024865998653
10
-22,914122303238393
20
-22,36883992906683
10
-22,859295092487812
20
-22,37876156924375
10
-22,804157076433746
20
-22,38677787563125
10
-22,748774448089826
20
-22,392879224679341
10
-22,693213694126229
20
-22,39705829173743
10
-22,637541515052106
20
-22,399310059849139
10
-22,581824745142356
20
-22,399631825773607
10
-22,52613027220292
20
-22,398023203231947
10
-22,470524957272318
20
-22,394486123370754
10
-22,415075554354935
20
-22,389024832442772
10
-22,359848630283743
20
-22,381645886710597
10
-22,304910484806086
20
-22,372358144575337
10
-22,250327070991922
20
-22,361172755942043
10
-22,196163916056832
20
-22,348103148834117
10
-22,142486042696738
20
-22,333165013273906
10
-22,089357891028598
20
-22,31637628244556
10
-22,036843241230599
20
-22,297757111167638
10
-21,985005136973612
20
-22,277329851695917
10
-21,933905809737766
20
-22,255119026890888
10
-21,883606604103321
20
-22,231151300777636
10
-21,834167904107922
20
-22,205455446535254
10
-21,785649060754118
20
-22,178062311955671
10
-21,738108320760041
20
-22,149004782410028
10
-21,691602756633337
20
-22,118317741370607
10
-21,646188198156828
20
-22,086038028533316
10
-21,601919165364016
20
-22,052204395590991
10
-21,558848803088821
20
-22,016857459712973
10
-21,517028817164601
20
-21,980039654783859
10
-21,476509412352414
20
-21,941795180462059
10
-21,437339232069412
20
-21,902169949117869
10
-21,399565299992922
20
-21,861211530716158
10
-21,363232963609029
20
-21,81896909570872
10
-21,328385839772324
20
-21,775493356004677
10
-21,295065762345011
20
-21,730836504092448
10
-21,26331273197442
20
-21,685052150381061
10
-21,233164868072798
20
-21,638195258842472
10
-21,204658363055735
20
-21,590322081026613
10
-21,177827438892116
20
-21,541490088531702
10
-21,15270430602143
20
-21,491757904010509
10
-21,129319124685342
20
-21,44118523079311
10
-21,107699968719835
20
-21,389832781213549
10
-21,087872791853322
20
-21,337762203725042
10
-21,069861396548824
20
-21,28503600889092
10
-21,053687405429518
20
-21,231717494341581
10
-21,039370235320511
20
-21,177870668784568
10
-21,026927073939099
20
-21,123560175164073
10
-21,016372859261221
20
-21,06885121305509
10
-21,007720261588325
20
-21,01380946039427
10
-21,000979668336335
20
-20,958500994630811
10
-20,99615917156612
20
-20,902992213403245
10
-20,993264558269011
20
-20,847349754827569
10
-20,992299303418829
20
-20,791640417499302
10
-20,99327891445423
20
-20,735518591155309
10
-20,996216552189342
20
-20,679465140641629
10
-21,001108637564734
20
-20,62354835845025
0
LWPOLYLINE
5
106
100
AcDbEntity
8
0
100
AcDbPolyline
90
181
70
1
43
0.0
10
-56,009758932764555
20
29,687118026724868
10
-55,95575034016278
20
29,673423724710936
10
-55,901299754608722
20
29,661608661642624
10
-55,846472543857892
20
29,651687021465936
10
-55,791334527803826
20
29,643670715078194
10
-55,735951899459835
20
29,637569366030228
10
-55,680391145496202
20
29,633390298972024
10
-55,624718966422222
20
29,631138530860444
10
-55,5690021965124
20
29,630816764935961
10
-55,513307723572893
20
29,63242538747739
10
-55,45770240864222
20
29,635962467338803
10
-55,402253005724873
20
29,641423758266797
10
-55,347026081653574
20
29,648802703998971
10
-55,292087936175811
20
29,658090446134118
10
-55,237504522361789
20
29,669275834767525
10
-55,183341367426593
20
29,682345441875331
10
-55,129663494066463
20
29,697283577435549
10
-55,0765353423985
20
29,714072308263908
10
-55,024020692600359
20
29,732691479542048
10
-54,972182588343408
20
29,753118739013757
10
-54,921083261107384
20
29,77532956381868
10
-54,870784055472903
20
29,799297289931932
10
-54,821345355477575
20
29,824993144174307
10
-54,772826512123558
20
29,852386278753897
10
-54,725285772129482
20
29,88144380829965
10
-54,678780208002884
20
29,912130849338936
10
-54,633365649526198
20
29,944410562176245
10
-54,589096616733386
20
29,978244195118691
10
-54,546026254458297
20
30,013591130996709
10
-54,504206268534219
20
30,050408935925823
10
-54,46368686372189
20
30,08865341024773
10
-54,424516683438817
20
30,12827864159182
10
-54,386742751362291
20
30,169237059993641
10
-54,350410414978327
20
30,211479495001186
10
-54,3155632911418
20
30,254955234705001
10
-54,282243213714523
20
30,299612086617358
10
-54,2504901833437
20
30,345396440328727
10
-54,22034231944231
20
30,39225333186744
10
-54,191835814425211
20
30,440126509683409
10
-54,165004890261486
20
30,488958502178214
10
-54,139881757390818
20
30,538690686699397
10
-54,116496576054409
20
30,589263359916803
10
-54,094877420089205
20
30,640615809496587
10
-54,075050243222584
20
30,692686386985095
10
-54,057038847918086
20
30,745412581819114
10
-54,040864856798798
20
30,798731096368563
10
-54,026547686689703
20
30,852577921925448
10
-54,014104525308468
20
30,906888415546181
10
-54,003550310630466
20
30,961597377655039
10
-53,994897712957588
20
31,016639130316079
10
-53,988157119705598
20
31,071947596079326
10
-53,983336622935383
20
31,127456377307006
10
-53,98044200963831
20
31,183098835882788
10
-53,979476754788216
20
31,238808173211055
10
-53,980456365823493
20
31,294929999555041
10
-53,983394003558587
20
31,350983450068732
10
-53,988286088933997
20
31,406900232260114
10
-53,995126661697768
20
31,462612220146191
10
-54,003907387665855
20
31,518051537254451
10
-54,014617568876915
20
31,573150639319579
10
-54,027244156625507
20
31,627842396575943
10
-54,041771767359918
20
31,682060175544741
10
-54,058182701424684
20
31,73573792021682
10
-54,076456964626196
20
31,788810232531226
10
-54,096572292590182
20
31,841212452053583
10
-54,118504177888909
20
31,89288073475393
10
-54,142225899899969
20
31,943752130791268
10
-54,167708557360115
20
31,993764661208282
10
-54,194921103577975
20
32,042857393443349
10
-54,223830384259095
20
32,090970515566717
10
-54,254401177899503
20
32,138045409152831
10
-54,286596238698266
20
32,184024720697614
10
-54,320376341934065
20
32,22885243149495
10
-54,355700331756793
20
32,272473925886622
10
-54,392525171327577
20
32,314836057803518
10
-54,430805995253984
20
32,355887215515288
10
-54,470496164250513
20
32,395577384511967
10
-54,51154732196251
20
32,43385820843821
10
-54,553909453879399
20
32,470683048009043
10
-54,597530948270858
20
32,50600703783175
10
-54,642358659067973
20
32,539787141067791
10
-54,688337970612864
20
32,57198220186627
10
-54,735412864199091
20
32,602552995506819
10
-54,783525986322736
20
32,631462276188131
10
-54,832618718557491
20
32,658674822405942
10
-54,882631248974469
20
32,684157479866158
10
-54,933502645012062
20
32,70787920187707
10
-54,985170927712161
20
32,729811087176017
10
-55,037573147234369
20
32,749926415139839
10
-55,090645459549208
20
32,768200678341152
10
-55,144323204220953
20
32,784611612406366
10
-55,198540983189694
20
32,799139223140628
10
-55,253232740445988
20
32,811765810889142
10
-55,3083318425114
20
32,822475992100301
10
-55,363771159619475
20
32,831256718068516
10
-55,419483147505488
20
32,838097290832138
10
-55,475399929696891
20
32,842989376207697
10
-55,531453380210607
20
32,845927013942635
10
-55,587575206554831
20
32,846906624978267
10
-55,643284543882991
20
32,845941370128116
10
-55,698927002458696
20
32,843046756830972
10
-55,754435783686311
20
32,838226260060885
10
-55,809744249449906
20
32,831485666808931
10
-55,864786002111018
20
32,822833069135982
10
-55,919494964219538
20
32,8122788544581
10
-55,973805457840271
20
32,799835693076716
10
-56,027652283397309
20
32,785518522967784
10
-56,080970797946712
20
32,769344531848446
10
-56,133696992780813
20
32,751333136543977
10
-56,185767570269398
20
32,731505959677413
10
-56,237120019848987
20
32,709886803712038
10
-56,287692693066376
20
32,686501622375772
10
-56,337424877587594
20
32,661378489505182
10
-56,386256870082399
20
32,63454756534145
10
-56,434130047898563
20
32,606041060324522
10
-56,480986939437017
20
32,575893196423067
10
-56,526771293148457
20
32,54414016605233
10
-56,571428145060914
20
32,510820088625003
10
-56,614903884764729
20
32,475972964788298
10
-56,65714631977238
20
32,439640628404398
10
-56,698104738174067
20
32,401866696327929
10
-56,737729969518469
20
32,362696516044821
10
-56,775974443840092
20
32,322177111232584
10
-56,812792248769206
20
32,280357125308463
10
-56,848139184647302
20
32,237286763033239
10
-56,881972817589883
20
32,193017730240513
10
-56,914252530426985
20
32,147603171763883
10
-56,9449395714663
20
32,101097607637257
10
-56,973997101012088
20
32,05355686764301
10
-57,001390235591707
20
32,005038024289327
10
-57,027086089834214
20
31,955599324293871
10
-57,051053815947306
20
31,905300118659518
10
-57,073264640752512
20
31,854200791423509
10
-57,093691900224215
20
31,802362687166472
10
-57,112311071502191
20
31,749848037368444
10
-57,129099802330501
20
31,696719885700535
10
-57,144037937890921
20
31,643042012340175
10
-57,157107544998738
20
31,588878857405014
10
-57,168292933631975
20
31,53429544359085
10
-57,177580675767317
20
31,479357298113317
10
-57,184959621499729
20
31,424130374042079
10
-57,190420912427378
20
31,368680971124725
10
-57,193957992289093
20
31,31307565619398
10
-57,195566614830469
20
31,257381183254438
10
-57,19524484890588
20
31,201664413344705
10
-57,192993080794317
20
31,145992234270583
10
-57,188814013736078
20
31,090431480306968
10
-57,182712664688218
20
31,035048851962983
10
-57,174696358300565
20
30,979910835908875
10
-57,164774718123788
20
30,925083625158216
10
-57,152959655055469
20
30,870633039604289
10
-57,139265353041466
20
30,816624447002255
10
-57,123708252048324
20
30,763122684497048
10
-57,106307028325709
20
30,710191980784998
10
-57,087082571988397
20
30,657895879008379
10
-57,066057961935215
20
30,606297160472089
10
-57,043258438143489
20
30,555457769274312
10
-57,018711371369974
20
30,505438737943109
10
-56,992446230290525
20
30,456300114167448
10
-56,964494546123596
20
30,408100888709786
10
-56,934889874777994
20
30,360898924587445
10
-56,9036677565677
20
30,314750887609083
10
-56,870865673547009
20
30,269712178347056
10
-56,836523004512571
20
30,225836865629503
10
-56,80068097772967
20
30,18317762163008
10
-56,763382621438581
20
30,141785658636422
10
-56,724672712197481
20
30,10171066756925
10
-56,684597721130316
20
30,063000758328258
10
-56,643205758136794
20
30,025702402036927
10
-56,600546514137378
20
29,989860375254239
10
-56,556671201419597
20
29,95551770621967
10
-56,511632492157737
20
29,922715623198872
10
-56,465484455179578
20
29,891493504988489
10
-56,41828249105707
20
29,861888833642869
10
-56,370083265599504
20
29,833937149476135
10
-56,320944641823587
20
29,807672008396597
10
-56,270925610492561
20
29,7831249416231
10
-56,220086219294778
20
29,760325417831499
10
-56,168487500758282
20
29,739300807778257
10
-56,116191398981883
20
29,720076351440756
10
-56,063260695269896
20
29,702675127718408
0
LWPOLYLINE
5
107
100
AcDbEntity
8
0
100
AcDbPolyline
90
181
70
1
43
0.0
10
-26,724393835313798
20
29,944410562176593
10
-26,680124802521021
20
29,978244195118926
10
-26,637054440245933
20
30,013591130996929
10
-26,595234454321641
20
30,050408935926161
10
-26,55471504950949
20
30,088653410247979
10
-26,515544869226524
20
30,12827864159215
10
-26,477770937149927
20
30,169237059993861
10
-26,441438600766034
20
30,211479495001399
10
-26,4065914769294
20
30,254955234705456
10
-26,373271399502016
20
30,299612086617806
10
-26,341518369131407
20
30,345396440329182
10
-26,31137050522991
20
30,392253331867892
10
-26,282864000212918
20
30,440126509683871
10
-26,256033076049121
20
30,488958502178669
10
-26,230909943178737
20
30,538690686699859
10
-26,207524761842436
20
30,589263359917371
10
-26,185905605876911
20
30,640615809496925
10
-26,166078429010504
20
30,692686386985546
10
-26,148067033706113
20
30,745412581819558
10
-26,131893042586825
20
30,798731096369014
10
-26,11757587247773
20
30,852577921926017
10
-26,10513271109653
20
30,906888415546749
10
-26,094578496418634
20
30,961597377655607
10
-26,085925898745614
20
31,016639130316548
10
-26,079185305493766
20
31,071947596079916
10
-26,074364808723516
20
31,127456377307681
10
-26,071470195426336
20
31,183098835883357
10
-26,070504940576313
20
31,238808173211616
10
-26,07148455161191
20
31,294929999555396
10
-26,074422189346933
20
31,350983450069183
10
-26,079314274722449
20
31,406900232260462
10
-26,086154847486327
20
31,462612220146546
10
-26,094935573454521
20
31,518051537254799
10
-26,10564575466551
20
31,573150639319813
10
-26,118272342414244
20
31,627842396576177
10
-26,132799953148442
20
31,682060175544962
10
-26,149210887213528
20
31,73573792021682
10
-26,167485150415111
20
31,788810232531326
10
-26,187600478378918
20
31,841212452053583
10
-26,209532363677752
20
31,892880734753817
10
-26,233254085688706
20
31,943752130791161
10
-26,258736743149029
20
31,993764661208282
10
-26,285949289366819
20
32,042857393443228
10
-26,31485857004801
20
32,090970515566468
10
-26,345429363688595
20
32,138045409152596
10
-26,377624424487252
20
32,18402472069738
10
-26,411404527723015
20
32,228852431494602
10
-26,446728517545743
20
32,272473925886295
10
-26,483553357116634
20
32,314836057803063
10
-26,521834181042934
20
32,355887215514834
10
-26,561524350039534
20
32,395577384511398
10
-26,602575507751354
20
32,433858208437762
10
-26,644937639667994
20
32,470683048008482
10
-26,688559134059737
20
32,506007037831182
10
-26,733386844857101
20
32,539787141067116
10
-26,779366156401849
20
32,571982201865701
10
-26,826441049988006
20
32,602552995506137
10
-26,874554172111225
20
32,631462276187335
10
-26,923646904346334
20
32,658674822405267
10
-26,973659434763313
20
32,684157479865348
10
-27,024530830800622
20
32,707879201876366
10
-27,076199113501005
20
32,729811087175108
10
-27,128601333023106
20
32,749926415139036
10
-27,181673645337625
20
32,768200678340484
10
-27,235351390009619
20
32,784611612405463
10
-27,289569168978325
20
32,799139223139839
10
-27,344260926234583
20
32,811765810888218
10
-27,399360028299853
20
32,822475992099385
10
-27,454799345407928
20
32,831256718067721
10
-27,510511333294012
20
32,838097290831456
10
-27,566428115485415
20
32,842989376206894
10
-27,622481565999024
20
32,845927013941953
10
-27,678603392342929
20
32,846906624977464
10
-27,734312729671338
20
32,845941370127761
10
-27,789955188247006
20
32,843046756830525
10
-27,845463969474515
20
32,838226260060424
10
-27,900772435238039
20
32,831485666808476
10
-27,955814187899115
20
32,822833069135527
10
-28,010523150007813
20
32,812278854457652
10
-28,064833643628546
20
32,799835693076261
10
-28,118680469185406
20
32,785518522967216
10
-28,171998983734916
20
32,769344531847999
10
-28,22472517856891
20
32,751333136543508
10
-28,276795756057496
20
32,731505959676937
10
-28,328148205637227
20
32,70988680371147
10
-28,378720878854722
20
32,686501622375317
10
-28,428453063375905
20
32,661378489504614
10
-28,477285055870745
20
32,634547565340995
10
-28,525158233686732
20
32,606041060323953
10
-28,572015125225434
20
32,575893196422498
10
-28,617799478936838
20
32,544140166051761
10
-28,662456330849118
20
32,510820088624435
10
-28,705932070553004
20
32,475972964787843
10
-28,748174505560584
20
32,439640628403829
10
-28,789132923962342
20
32,401866696327268
10
-28,828758155306495
20
32,362696516044252
10
-28,867002629628402
20
32,322177111232016
10
-28,903820434557517
20
32,280357125308008
10
-28,939167370435506
20
32,237286763032671
10
-28,973001003377945
20
32,193017730239831
10
-29,005280716215331
20
32,147603171763322
10
-29,03596775725461
20
32,101097607636689
10
-29,065025286800221
20
32,05355686764257
10
-29,092418421379911
20
32,005038024288758
10
-29,118114275622347
20
31,955599324293189
10
-29,142082001735545
20
31,905300118658928
10
-29,16429282654061
20
31,854200791422844
10
-29,184720086012348
20
31,802362687165786
10
-29,203339257290324
20
31,749848037367883
10
-29,220127988118705
20
31,696719885699736
10
-29,235066123679019
20
31,643042012339606
10
-29,248135730786835
20
31,588878857404332
10
-29,25932111942025
20
31,534295443590281
10
-29,268608861555521
20
31,479357298112518
10
-29,275987807287507
20
31,42413037404129
10
-29,281449098215511
20
31,368680971124043
10
-29,284986178076906
20
31,313075656193298
10
-29,286594800618531
20
31,257381183253869
10
-29,286273034693906
20
31,201664413344012
10
-29,284021266582343
20
31,145992234269897
10
-29,279842199524246
20
31,090431480306169
10
-29,273740850476102
20
31,035048851962301
10
-29,265724544088627
20
30,979910835908075
10
-29,255802903911743
20
30,925083625157647
10
-29,243987840843531
20
30,87063303960349
10
-29,230293538829528
20
30,816624447001573
10
-29,214736437836031
20
30,763122684496356
10
-29,197335214113593
20
30,710191980784209
10
-29,178110757776246
20
30,65789587900781
10
-29,157086147722815
20
30,60629716047152
10
-29,134286623931231
20
30,555457769273524
10
-29,109739557157823
20
30,50543873794232
10
-29,083474416078232
20
30,456300114166766
10
-29,055522731911587
20
30,408100888708987
10
-29,025918060565843
20
30,360898924586657
10
-28,994695942355619
20
30,314750887608398
10
-28,961893859334751
20
30,269712178346371
10
-28,927551190300242
20
30,225836865628715
10
-28,891709163517412
20
30,183177621629405
10
-28,854410807226216
20
30,141785658635854
10
-28,815700897985224
20
30,101710667568575
10
-28,775625906917917
20
30,063000758327583
10
-28,73423394392443
20
30,025702402036359
10
-28,691574699924942
20
29,98986037525367
10
-28,64769938720741
20
29,955517706219101
10
-28,602660677945444
20
29,922715623198322
10
-28,556512640967
20
29,891493504988034
10
-28,509310676844812
20
29,861888833642301
10
-28,461111451386891
20
29,833937149475567
10
-28,411972827611223
20
29,807672008396146
10
-28,361953796280091
20
29,783124941622532
10
-28,311114405082414
20
29,760325417831162
10
-28,259515686545953
20
29,739300807777688
10
-28,207219584769305
20
29,720076351440419
10
-28,154288881057425
20
29,702675127717946
10
-28,100787118552226
20
29,687118026724537
10
-28,046778525950238
20
29,673423724710464
10
-27,992327940396109
20
29,661608661642298
10
-27,937500729645528
20
29,651687021465598
10
-27,88236271359132
20
29,643670715077867
10
-27,826980085247399
20
29,637569366029997
10
-27,771419331283624
20
29,633390298971676
10
-27,715747152209609
20
29,631138530860088
10
-27,660030382299894
20
29,630816764935723
10
-27,604335909360387
20
29,632425387477159
10
-27,548730594429607
20
29,635962467338572
10
-27,493281191512224
20
29,641423758266576
10
-27,438054267440997
20
29,64880270399874
10
-27,383116121963518
20
29,658090446134011
10
-27,328532708149211
20
29,669275834767408
10
-27,274369553214228
20
29,682345441875214
10
-27,220691679853921
20
29,697283577435432
10
-27,167563528185923
20
29,714072308263788
10
-27,115048878387924
20
29,732691479541931
10
-27,06321077413083
20
29,753118739013757
10
-27,012111446894913
20
29,77532956381868
10
-26,961812241260503
20
29,799297289931932
10
-26,912373541265033
20
29,824993144174428
10
-26,863854697911336
20
29,852386278754128
10
-26,816313957917082
20
29,88144380829965
10
-26,769808393790413
20
29,912130849339071
0
LWPOLYLINE
5
108
100
AcDbEntity
8
0
100
AcDbPolyline
90
4
70
1
43
0.0
10
52,000000000000014
20
7,0000000000000009
10
52,000000000000014
20
4
10
67,000000000000014
20
4
10
67,000000000000014
20
7,0000000000000009
0
LWPOLYLINE
5
109
100
AcDbEntity
8
0
100
AcDbPolyline
90
4
70
1
43
0.0
10
2,0000000000000107
20
7,0000000000000009
10
2,0000000000000107
20
3,9999999999999996
10
17,000000000000011
20
4
10
17,000000000000011
20
7,0000000000000009
0
LWPOLYLINE
5
110
100
AcDbEntity
8
0
100
AcDbPolyline
90
4
70
1
43
0.0
10
2,0000000000000107
20
-3,9999999999999996
10
2,0000000000000107
20
-7,0000000000000009
10
17,000000000000011
20
-7,0000000000000009
10
17,000000000000011
20
-4
0
LWPOLYLINE
5
111
100
AcDbEntity
8
0
100
AcDbPolyline
90
4
70
1
43
0.0
10
52,000000000000014
20
-4
10
52,000000000000014
20
-7,0000000000000009
10
67,000000000000014
20
-7,0000000000000009
10
67,000000000000014
20
-4
0
LWPOLYLINE
5
112
100
AcDbEntity
8
0
100
AcDbPolyline
90
22
70
1
43
0.0
10
-4,9999999999999929
20
40
42
-0,41421356237309553
10
8,8817841970012523e-15
20
35
42
0,41421356237309503
10
5,0000000000000089
20
29,999999999999996
10
70
20
30,000000000000007
42
-0,41421356237309531
10
75
20
25,000000000000004
10
74,999999999999986
20
-24,999999999999996
42
-0,41421356237309503
10
69,999999999999986
20
-29,999999999999996
10
5,0000000000000009
20
-29,999999999999996
42
0,41421356237309509
10
-1,1102230246251565e-15
20
-34,999999999999993
42
-0,4142135623730952
10
-5
20
-40
10
-19,999999999999993
20
-40
10
-19,999999999999993
20
-37
10
-34,999999999999993
20
-37
10
-34,999999999999993
20
-40
10
-70
20
-39,999999999999993
42
-0,41421356237309553
10
-74,999999999999986
20
-34,999999999999993
10
-74,999999999999986
20
35,000000000000007
42
-0,41421356237309609
10
-69,999999999999986
20
40,000000000000007
10
-34,999999999999993
20
40
10
-34,999999999999993
20
37
10
-19,999999999999993
20
37
10
-19,999999999999993
20
40
0
ENDSEC
0
SECTION
2
OBJECTS
0
DICTIONARY
5
C
100
AcDbDictionary
3
ACAD_GROUP
350
D
3
ACAD_MLINESTYLE
350
17
0
DICTIONARY
5
D
100
AcDbDictionary
0
DICTIONARY
5
1A
330
C
100
AcDbDictionary
0
DICTIONARY
5
17
100
AcDbDictionary
0
ENDSEC
0
EOF
