0
SECTION
2
HEADER
9
$INSUNITS
70
4
9
$ACADVER
1
AC1014
9
$HANDSEED
5
FFFF
0
ENDSEC
0
SECTION
2
TABLES
0
TABLE
2
VPORT
5
8
100
AcDbSymbolTable
0
ENDTAB
0
TABLE
2
LTYPE
5
5
100
AcDbSymbolTable
0
LTYPE
5
14
100
AcDbSymbolTableRecord
100
AcDbLinetypeTableRecord
2
BYBLOCK
70
0
0
LTYPE
5
15
100
AcDbSymbolTableRecord
100
AcDbLinetypeTableRecord
2
BYLAYER
70
0
0
ENDTAB
0
TABLE
2
LAYER
5
2
100
AcDbSymbolTable
70
2
0
LAYER
5
50
100
AcDbSymbolTableRecord
100
AcDbLayerTableRecord
2
0
70
0
6
CONTINUOUS
0
ENDTAB
0
TABLE
2
STYLE
5
3
100
AcDbSymbolTable
70
1
0
STYLE
5
11
100
AcDbSymbolTableRecord
100
AcDbTextStyleTableRecord
2
STANDARD
70
0
0
ENDTAB
0
TABLE
2
VIEW
5
6
100
AcDbSymbolTable
70
0
0
ENDTAB
0
TABLE
2
UCS
5
7
100
AcDbSymbolTable
70
0
0
ENDTAB
0
TABLE
2
APPID
5
9
100
AcDbSymbolTable
70
2
0
APPID
5
12
100
AcDbSymbolTableRecord
100
AcDbRegAppTableRecord
2
ACAD
70
0
0
ENDTAB
0
TABLE
2
DIMSTYLE
5
A
100
AcDbSymbolTable
70
1
0
ENDTAB
0
TABLE
2
BLOCK_RECORD
5
1
100
AcDbSymbolTable
70
1
0
BLOCK_RECORD
5
1F
100
AcDbSymbolTableRecord
100
AcDbBlockTableRecord
2
*MODEL_SPACE
0
BLOCK_RECORD
5
1B
100
AcDbSymbolTableRecord
100
AcDbBlockTableRecord
2
*PAPER_SPACE
0
ENDTAB
0
ENDSEC
0
SECTION
2
BLOCKS
0
BLOCK
5
20
100
AcDbEntity
100
AcDbBlockBegin
2
*MODEL_SPACE
0
ENDBLK
5
21
100
AcDbEntity
100
AcDbBlockEnd
0
BLOCK
5
1C
100
AcDbEntity
100
AcDbBlockBegin
2
*PAPER_SPACE
0
ENDBLK
5
1D
100
AcDbEntity
100
AcDbBlockEnd
0
ENDSEC
0
SECTION
2
ENTITIES
0
LWPOLYLINE
5
100
100
AcDbEntity
8
0
100
AcDbPolyline
90
4
70
1
43
0.0
10
-23,000458906144896
20
10,5
10
-27,000458965749541
20
10,5
10
-27,000458965749541
20
8,4999999701976776
10
-23,000458906144896
20
8,4999999701976776
0
LWPOLYLINE
5
101
100
AcDbEntity
8
0
100
AcDbPolyline
90
4
70
1
43
0.0
10
29,499999999999993
20
10,500000000000007
10
25,499999940395348
20
10,500000000000007
10
25,499999940395348
20
8,4999999701976847
10
29,499999999999993
20
8,4999999701976847
0
LWPOLYLINE
5
102
100
AcDbEntity
8
0
100
AcDbPolyline
90
8
70
1
43
0.0
10
14,499999999999989
20
4,9999999999999982
10
0,50000000000000044
20
4,9999999999999964
42
0,41421356237309498
10
-2,4999999999999978
20
1,9999999999999978
10
-2,5000000000000089
20
-1,9999999999999969
42
0,41421356237309503
10
0,49999999999999156
20
-4,9999999999999973
10
14,499999999999996
20
-4,9999999999999964
42
0,41421356237309553
10
17,499999999999996
20
-1,9999999999999971
10
17,499999999999989
20
1,9999999999999987
42
0,41421356237309498
0
CIRCLE
5
103
100
AcDbEntity
8
0
100
AcDbCircle
10
-7,5000000000000089
20
-9,0000000000000036
30
0
40
1,5000000000000002
0
CIRCLE
5
104
100
AcDbEntity
8
0
100
AcDbCircle
10
-7,5000000000000089
20
8,9999999999999964
30
0
40
1,5000000000000002
0
LWPOLYLINE
5
105
100
AcDbEntity
8
0
100
AcDbPolyline
90
14
70
1
43
0.0
10
-17,499999701976783
20
11,500000000000004
10
17,500000298023217
20
11,499999999999996
10
17,500000298023217
20
14,500000000000004
10
32,499999999999993
20
14,500000000000002
10
32,499999999999993
20
-14,500000000000002
10
17,499999999999993
20
-14,500000000000002
10
17,499999999999993
20
-11,500000000000002
10
-17,500000000000007
20
-11,500000000000002
10
-17,500000000000007
20
-14,500000000000002
10
-32,500000000000014
20
-14,500000000000004
10
-32,500000000000014
20
11,500000000000002
10
-32,500458935947222
20
11,500000000000002
10
-32,500458935947222
20
14,500000000000007
10
-17,499999701976783
20
14,500000000000004
0
ENDSEC
0
SECTION
2
OBJECTS
0
DICTIONARY
5
C
100
AcDbDictionary
3
ACAD_GROUP
350
D
3
ACAD_MLINESTYLE
350
17
0
DICTIONARY
5
D
100
AcDbDictionary
0
DICTIONARY
5
1A
330
C
100
AcDbDictionary
0
DICTIONARY
5
17
100
AcDbDictionary
0
ENDSEC
0
EOF
